<?xml version="1.0" encoding="UTF-8" standalone="no"?>
<svg xmlns:dc="http://purl.org/dc/elements/1.1/" xmlns:cc="http://creativecommons.org/ns#" xmlns:rdf="http://www.w3.org/1999/02/22-rdf-syntax-ns#" xmlns:svg="http://www.w3.org/2000/svg" xmlns="http://www.w3.org/2000/svg" xmlns:sodipodi="http://sodipodi.sourceforge.net/DTD/sodipodi-0.dtd" xmlns:inkscape="http://www.inkscape.org/namespaces/inkscape" id="svg2" sodipodi:version="0.32" inkscape:version="0.46dev+devel" sodipodi:docbase="C:\Documents and Settings\Lisa Tritton\Desktop\New Folder" sodipodi:docname="ryanlerch_manface7_outline.svg" inkscape:output_extension="org.inkscape.output.svg.inkscape" version="1.0">
  <defs id="defs4"/>
  <sodipodi:namedview id="base" pagecolor="#ffffff" bordercolor="#666666" borderopacity="1.0" gridtolerance="10000" guidetolerance="10" objecttolerance="10" inkscape:pageopacity="0.0" inkscape:pageshadow="2" inkscape:zoom="0.49497475" inkscape:cx="375" inkscape:cy="520" inkscape:document-units="px" inkscape:current-layer="layer1" inkscape:window-width="1280" inkscape:window-height="540" inkscape:window-x="0" inkscape:window-y="26" showgrid="false"/>
  <g inkscape:label="Layer 1" inkscape:groupmode="layer" id="layer1" transform="translate(-1.7043485,-25.794252)">
    <path id="faceSvg" style="fill:none; stroke: black; stroke-width: 1px;" d="M 310.72623,812.80599 C 226.34171,806.05311 151.15529,751.36984 108.35376,679.86096 C 79.478166,633.1495 61.915656,579.83258 55.221536,525.42883 C 38.862856,527.45381 22.379556,520.74029 12.186066,507.81674 C -3.8086742,485.81129 1.5159758,456.44347 8.4040758,432.10075 C 12.895836,414.70726 26.122156,401.35215 42.514516,396.1569 C 37.459836,379.63165 40.413356,360.98431 46.889596,344.89196 C 52.980736,320.32795 54.590756,295.01618 57.995416,270.03546 C 61.594206,241.94929 56.859536,213.87629 55.577186,185.78372 C 54.101096,164.80843 52.482856,143.83866 50.246696,122.92886 C 39.440996,102.60764 40.916636,79.253074 43.995356,57.515724 C 49.637616,38.464044 76.108006,32.492344 90.564726,45.518274 C 106.64921,50.435094 112.98488,81.472334 131.54373,68.827424 C 146.95777,57.205484 165.81044,48.908514 185.52689,52.094954 C 202.17155,48.734174 217.8654,73.216994 230.22481,53.185724 C 246.64511,41.571914 263.30968,22.159074 285.45695,26.385794 C 305.00703,31.339274 319.60925,47.919544 340.68245,48.901744 C 359.55774,56.258284 375.54478,42.362994 394.54967,43.612354 C 416.02082,39.686034 431.19765,61.371594 452.2842,61.135454 C 472.01881,60.945644 491.40948,54.862074 510.56005,51.345764 C 529.67167,43.819444 546.4359,62.137994 564.73779,56.825834 C 580.47908,52.464754 594.70611,41.995764 611.32332,42.092694 C 622.45332,45.320094 627.74747,54.441944 640.18985,48.786444 C 658.87914,46.496914 666.81023,68.296884 663.20417,83.608604 C 664.16063,109.66704 649.63405,132.69179 645.33635,157.91939 C 641.69006,177.75363 634.30097,196.87709 633.09792,217.37622 C 627.76271,252.1809 626.04587,287.44797 627.27203,322.64067 C 627.06003,341.35445 627.98456,360.46828 624.79895,378.88803 C 619.02499,387.04494 613.73104,401.29333 630.1166,397.33875 C 652.37397,402.42459 659.43336,428.05424 661.58291,447.8959 C 664.69424,468.82183 664.96326,491.64519 655.60047,511.00788 C 646.30166,527.87811 625.26873,532.49868 607.74759,528.40796 C 595.67344,534.12055 601.87277,554.49887 596.14621,566.0289 C 576.67081,654.79762 523.68033,739.23764 442.96156,783.93785 C 402.81808,805.83102 356.38905,816.39455 310.72623,812.80599 z M 349.80256,808.85384 C 431.52507,801.68432 503.39866,748.15779 545.88191,679.74563 C 575.13339,633.60348 592.37527,580.4652 599.22625,526.43024 C 592.51475,524.60492 581.03686,497.8307 591.74539,512.44073 C 601.75858,530.46754 627.62629,527.88689 643.16646,519.12027 C 660.67862,505.05931 658.67218,479.82943 659.42756,459.64436 C 655.84944,442.1061 655.09518,421.70145 642.30012,407.97044 C 629.98954,395.20702 610.845,400.14425 602.80345,414.84462 C 593.3675,416.46218 586.56284,435.42194 582.38893,434.08074 C 587.99611,424.85568 594.69911,415.20334 579.75106,411.57723 C 564.01351,393.85153 565.05396,367.55045 549.99475,349.33479 C 539.09629,334.19843 539.3296,313.88551 527.76128,299.58613 C 518.95755,283.90404 507.47873,270.21818 493.59607,258.79117 C 477.95239,248.91796 464.22027,229.00729 444.85749,230.3559 C 428.45679,228.69322 413.52289,235.25703 397.92995,237.67236 C 370.63998,240.58131 341.86853,243.83508 316.03705,232.02881 C 295.9569,227.7941 280.06133,214.67932 259.94505,210.46946 C 237.84792,200.09882 219.97474,219.53536 204.43679,232.24216 C 176.97256,251.78365 156.46317,278.89565 132.86128,302.60213 C 121.59702,330.60699 101.46456,353.55248 88.436376,380.58911 C 82.238246,391.32645 68.269836,401.78913 80.688446,412.70171 C 80.521596,420.35478 75.243296,401.0045 67.506666,406.35556 C 48.498266,399.27193 23.661476,402.25483 15.883996,423.89739 C 7.9010058,443.58977 3.8053758,465.96245 7.0495658,487.10023 C 10.570656,506.56939 29.833606,523.22853 49.811076,521.82455 C 57.854556,517.76043 60.445396,524.18942 62.512946,512.57131 C 63.815886,503.36763 68.467476,503.49821 64.519916,512.63732 C 57.519276,526.12696 60.124926,540.90103 63.790316,554.80753 C 80.708976,644.03937 131.34527,729.62083 210.56314,776.70584 C 252.2579,801.14948 301.48346,813.66412 349.80256,808.85384 z M 267.22623,788.92885 C 270.59344,784.73825 270.59317,793.11951 267.22623,788.92885 z M 253.22623,786.92885 C 243.87489,784.53322 223.73532,773.0352 226.57287,768.84288 C 233.1277,776.88205 256.65823,783.17767 255.63221,787.94258 L 254.30468,787.71846 L 253.22624,786.92883 L 253.22623,786.92885 z M 218.22625,760.92885 C 220.56269,756.68692 220.8242,765.2669 218.22625,760.92885 z M 315.72623,694.92885 C 296.5852,691.1594 277.17787,687.14251 260.00652,677.56874 C 237.12258,670.45496 218.52875,655.28774 199.30846,641.65688 C 175.85038,628.07249 164.99551,601.81468 152.73945,579.00404 C 147.8966,564.74776 141.52106,551.45215 139.35921,536.46743 C 133.7977,520.97946 135.63969,540.86452 131.60295,542.00825 C 126.41,530.33638 132.13215,504.98718 146.99856,504.43294 C 133.93025,517.92521 142.76849,539.34408 149.18304,553.76792 C 153.0253,570.87995 160.16686,586.38546 169.95694,600.91212 C 178.39736,620.10012 193.70591,634.99644 211.87075,645.06523 C 229.33835,659.1949 249.57911,669.86358 270.78024,677.22055 C 286.9286,686.74146 305.893,687.09538 323.26479,692.2248 C 345.69346,696.22871 367.46238,686.80994 389.70786,685.38776 C 407.11606,681.48769 424.0892,672.96396 439.84891,664.188 C 458.6081,646.75145 480.63186,631.48459 491.96731,607.71797 C 503.19323,592.40016 512.9425,576.27597 516.24466,557.21806 C 522.1874,544.75574 540.61365,521.65048 518.3629,514.5056 C 528.76046,504.88547 548.46174,537.62876 533.45655,530.07358 C 531.24204,546.3378 517.72239,556.90896 516.17502,573.6195 C 510.24208,592.31753 495.725,606.76205 487.40412,624.51598 C 473.76764,641.34746 457.02702,655.52607 440.3397,669.21739 C 423.22414,676.42935 407.31359,688.04673 388.61495,689.49391 C 364.41773,692.26583 340.12592,701.63395 315.72623,694.92885 z M 620.40061,491.6144 C 618.86739,484.88904 610.74864,477.99248 605.53751,485.98913 C 609.7975,468.50474 622.59038,489.31467 627.52839,489.25486 C 639.19108,475.97487 635.75264,454.73713 632.2151,438.9964 C 627.50303,423.89749 607.32418,432.85533 605.21738,435.95355 C 611.9867,417.0447 640.40016,427.93311 637.15453,447.06257 C 637.65324,461.57405 643.43637,490.63848 624.28802,493.8572 L 622.23899,493.08901 L 620.40059,491.61438 L 620.40061,491.6144 z M 42.784266,489.02279 C 21.144626,485.05648 25.035096,454.69719 34.186746,440.61413 C 38.442106,424.28459 71.499056,423.15944 65.202726,441.04435 C 59.605796,421.06546 37.904066,435.37285 33.780096,448.73586 C 23.744846,460.85796 34.699126,498.35347 50.930236,480.64475 C 57.526456,471.78858 66.828596,484.76988 54.313806,481.81466 C 50.178166,485.96661 50.963636,493.37977 42.784266,489.02279 z M 627.22629,465.92885 C 629.56274,461.68692 629.8241,470.26693 627.22629,465.92885 z M 627.19449,452.17885 C 633.80153,442.05921 608.39767,438.35694 624.09434,437.27832 C 630.44148,437.73787 630.01607,469.43597 627.19449,452.17885 z M 300.60926,391.85027 C 276.76276,383.13315 307.97003,349.68144 317.30934,374.52015 C 320.79773,384.40517 310.68899,395.0499 300.60926,391.85027 z M 369.17347,388.11135 C 350.70601,372.91675 390.30528,353.73833 391.15197,377.77727 C 392.83186,389.27297 376.91061,397.44205 369.17347,388.11135 z M 421.36585,357.32451 C 405.60376,347.43992 388.58133,337.9074 369.36197,338.36912 C 362.13222,340.40105 348.92862,331.95125 363.12326,330.48672 C 385.14234,329.07339 407.18712,337.39513 424.46874,350.52138 C 430.8608,354.89765 428.61532,360.03708 421.36585,357.32451 z M 253.89292,349.26217 C 258.47067,330.31482 286.32144,331.72359 301.60165,328.86062 C 312.59596,338.75443 284.40791,335.66617 278.76177,340.80462 C 270.53014,343.77114 262.50988,347.50694 253.89292,349.26217 z M 506.22629,282.92885 C 508.56264,278.68689 508.82419,287.26688 506.22629,282.92885 z M 490.22629,270.42885 C 492.36374,265.74424 491.99581,275.11211 490.22629,270.42885 z M 485.47629,263.43306 C 480.52279,253.99881 459.13557,244.38319 460.26099,239.52774 C 468.99852,243.35595 491.66616,258.84589 485.47623,263.43303 L 485.47629,263.43306 z M 303.22623,240.42885 C 305.36367,235.74424 304.99593,245.11208 303.22623,240.42885 z M 287.22623,233.92885 C 276.49204,228.80952 255.45424,221.81844 252.18049,215.88142 C 265.32118,219.92004 277.76801,227.40963 289.71624,233.63094 L 289.19234,234.07876 L 287.22624,233.92886 L 287.22623,233.92885 z M 595.22629,413.08193 C 588.91723,409.12441 579.51595,388.6087 591.16655,402.71661 C 604.73564,423.64929 615.35222,388.13526 620.19385,377.23817 C 624.22563,358.22912 621.42385,338.40874 622.26745,319.05551 C 622.59227,293.67243 620.75499,267.96758 626.07416,243.03111 C 626.8279,214.97891 633.12665,187.62675 640.72985,160.7403 C 643.48536,132.72013 661.41719,107.89002 659.19368,79.164064 C 664.30556,60.587614 643.75934,45.201694 628.13744,56.615664 C 617.92285,58.949104 616.64283,38.524154 603.0469,46.320274 C 588.05086,52.932774 572.53633,58.197864 556.95414,63.151354 C 541.14818,59.436344 524.79977,49.615574 507.15553,56.148534 C 486.59329,59.070524 465.48227,68.282614 444.50748,63.468414 C 425.70799,60.797544 411.11601,43.361794 390.88142,46.926754 C 372.45911,50.833014 354.32836,59.601134 335.58899,51.509704 C 315.21918,52.034234 302.12788,33.841174 284.30844,30.083494 C 268.06526,28.258934 254.72038,39.945844 242.23456,48.328434 C 232.41328,61.912074 216.10807,72.368864 201.04641,59.563704 C 180.91502,53.067114 157.43625,54.440274 140.50799,68.180994 C 128.2909,80.504374 112.93037,78.233314 104.61984,63.113664 C 93.277836,49.921384 73.481726,34.916494 56.333586,47.467414 C 42.172136,63.313114 44.450216,89.419074 48.694596,109.06879 C 60.050296,132.15429 55.860886,158.54452 58.909486,183.3071 C 60.791046,215.08452 66.702546,247.1024 60.747406,278.79086 C 57.442216,307.07843 55.622626,336.08244 45.317636,362.92886 C 41.333126,378.09965 43.716346,408.13236 66.700316,399.29598 C 81.403586,389.35658 86.811326,371.01221 95.827976,356.57373 C 108.56156,340.15384 118.70386,322.09983 127.3491,303.24642 C 136,287.32959 158.64065,279.96842 159.30217,259.65846 C 155.93789,246.47325 146.97954,271.59971 142.97257,275.43064 C 141.32528,282.18524 128.87685,288.6308 136.6853,277.67886 C 145.16463,262.85443 156.01443,249.40115 165.8498,235.67239 C 165.84273,221.88276 175.3248,231.22993 181.28047,221.55805 C 188.42719,217.00653 204.34255,201.89445 208.05375,206.99631 C 197.26297,218.58936 177.14101,221.53133 173.83035,238.60316 C 171.99933,252.86439 169.28178,232.74389 165.37432,244.12288 C 160.59402,252.29737 161.79373,270.68346 171.97843,255.69348 C 187.05955,238.27941 206.6639,225.97342 223.9308,211.00004 C 239.84456,198.76804 261.24989,202.69978 277.56265,211.83796 C 307.54938,224.96233 339.52427,240.32831 373.2244,235.49478 C 392.72374,236.65879 410.9261,229.39402 429.76598,227.38643 C 449.15152,220.71974 466.29239,230.79148 480.48332,243.11424 C 499.97631,257.05825 518.20784,273.59775 529.68551,294.99083 C 543.86507,310.48369 542.86454,333.63393 556.30218,349.65918 C 566.51126,365.1463 569.16375,383.86 576.87735,400.36579 C 580.62004,406.9076 586.89591,414.0041 595.22629,413.08193 z M 115.22625,293.42885 C 118.6268,287.66387 118.62677,299.19386 115.22625,293.42885 z M 537.22629,284.42885 C 540.62687,278.66389 540.62667,290.19385 537.22629,284.42885 z M 524.47629,270.67885 C 528.60033,265.70388 528.28381,276.03759 524.47629,270.67885 z M 511.65122,259.8713 C 501.08832,246.35164 481.27722,241.08324 473.82492,225.56835 C 483.12525,229.11758 498.07678,244.9859 509.79343,252.73157 C 512.48709,253.75072 519.41523,266.15762 511.65122,259.8713 z M 348.47623,234.20546 C 334.39376,227.67297 319.0874,223.82225 305.37799,216.84442 C 310.77619,211.37361 331.50735,224.86245 342.08083,227.26187 C 349.1796,228.29986 368.06598,236.0843 350.35403,234.41586 C 349.72809,234.34578 349.10217,234.27554 348.47623,234.20546 z M 71.406696,144.75719 C 74.711706,136.21457 74.150746,152.45129 71.406696,144.75719 z M 68.226246,129.42885 C 71.626796,123.66387 71.626766,135.19386 68.226246,129.42885 z M 63.916476,105.77407 C 61.078706,91.334804 51.815766,64.892004 70.685276,58.954334 C 78.353236,62.017844 59.245316,64.984614 62.779536,73.845744 C 59.443456,86.246284 71.296466,102.13634 65.136396,111.9361 C 64.230186,110.00487 64.140656,107.85113 63.916476,105.77407 z"/>
  </g>
  <metadata>
    <rdf:RDF>
      <cc:Work>
        <dc:format>image/svg+xml</dc:format>
        <dc:type rdf:resource="http://purl.org/dc/dcmitype/StillImage"/>
        <cc:license rdf:resource="http://creativecommons.org/licenses/publicdomain/"/>
        <dc:publisher>
          <cc:Agent rdf:about="http://openclipart.org/">
            <dc:title>Open Clip Art Library</dc:title>
          </cc:Agent>
        </dc:publisher>
        <dc:title>manface7 outline</dc:title>
        <dc:date>2006-10-10T03:45:28</dc:date>
        <dc:description>worldlabel image that was converted from the source jpeg</dc:description>
        <dc:source>http://openclipart.org/detail/471/manface7-outline-by-ryanlerch</dc:source>
        <dc:creator>
          <cc:Agent>
            <dc:title>ryanlerch</dc:title>
          </cc:Agent>
        </dc:creator>
        <dc:subject>
          <rdf:Bag>
            <rdf:li>boy</rdf:li>
            <rdf:li>cartoon</rdf:li>
            <rdf:li>clip art</rdf:li>
            <rdf:li>clipart</rdf:li>
            <rdf:li>contour</rdf:li>
            <rdf:li>face</rdf:li>
            <rdf:li>head</rdf:li>
            <rdf:li>man</rdf:li>
            <rdf:li>outline</rdf:li>
            <rdf:li>people</rdf:li>
            <rdf:li>person</rdf:li>
            <rdf:li>remix</rdf:li>
            <rdf:li>smiling</rdf:li>
            <rdf:li>worldlabel</rdf:li>
          </rdf:Bag>
        </dc:subject>
      </cc:Work>
      <cc:License rdf:about="http://creativecommons.org/licenses/publicdomain/">
        <cc:permits rdf:resource="http://creativecommons.org/ns#Reproduction"/>
        <cc:permits rdf:resource="http://creativecommons.org/ns#Distribution"/>
        <cc:permits rdf:resource="http://creativecommons.org/ns#DerivativeWorks"/>
      </cc:License>
    </rdf:RDF>
  </metadata>
</svg>
